<?xml version="1.0" encoding="UTF-8"?>
<svg version="1.1" viewBox="0 0 1448 1448" width="1280" height="1280" xmlns="http://www.w3.org/2000/svg">
<path transform="translate(0)" d="m0 0h1448v1448h-1448z" fill="#200202"/>
<path transform="translate(1053)" d="m0 0h235v24l-1 24-2 29v52l1 30v20l1 9v26l1 42 1 32 1 25 2 34 1 57v13l-3 8-2 8v20h-90l-20-1h-47l-7-21v-12l-4-14-10-16-11-11-27-13-13-3-6-1v-13l-2-29-1-59v-51l4 5 2 8 2 9 3 3h10l4-1 2-11 1-27 2-3v-10l-6-38-1-29-4-4-6-2-9-1v-87z" fill="#FFFFFE"/>
<path transform="translate(139)" d="m0 0h212v50l-2 44-1 120v21l1 34 3 39 4 32 1 44-3 2-12-9-17-9-17-6-4-2 1-6 3-3 8-3 10-2 6-8 2-5 6 1 1 3 3-1 1-3-3-6-1-4v-8l-13-3-12-5-9-6-5-2h-14l-5 3-3 3-8 2-4-13-1-8-6-8-7-1h-2l-2 6-3 5-4 4-14 8-10 8-3 8-5 5-1 2v7l5 15-16-2-7 2-3 4v22l-8 6-1 5 3 5 8 7 11 5 9 2 8 6 10 9 3 5v3l6-1 13 16 3 3-1 2-48 1-69 1-1-2 2-20 4-64 3-58v-99l-1-27-2-38-4-51v-28l1-51z" fill="#FFFFFE"/>
<path transform="translate(140,882)" d="m0 0 13 1 37 6 22 2 45 2v3h16l16 1 2 5-2 3h-10l-24-5v5l9 3 1 1v5l-2 2-7-1-1 4-1 1h-6v2l13 2 3 9-4 4-7 2 7 6v6l-1 5 6 2 11 2 3-1-8-4-4-5 1-5 5 2 19 4 20 2h23l1 5-8 5-2 12-3 3-1 8 1 6-7 2-1 7 1 4h-12l-4 4v7l1 2v8l-1 1v9l2 3-1 4-5 3h-21l-21 2 41 1 2 7h-70l-12-1-1-5-18 1-5-4-10-1v-2h2l2-7-1-9-4-3-20-3-3-1-2-9-5-2-3-1-23-2-6-2-7-4-5-1h-10l-8 3-4 3-9-3-6-3-5-7-2-1 1 7-3-1-2-10-2-9-4-1-1 6-1 4v12l3 5 5 3 9 2 2 4h24l12 1 7 5 10 3 12 2 2 9 3 3 7 2 8 1v2l-2 1-15 1h-129l-8-3v-117l8-4 42-16 22-12 10-5 10-2h22z" fill="#FEFEFD"/>
<path transform="translate(1202,858)" d="m0 0h6l2 1v2h31l20-1h63l18 2 29 1 5 4 11 6h9l20 10 5 4 16 9 11 7v126l-9-1h-18l-11 4-19 1h-16l-4-1-1-7-15-2-4-2-1-6-8-2-2-5-3-1-2-8 4-2 2-6 3-3h2l1-9 1-5-7 1-4 3-7 1-3 6v6l-4 9-5 2-3 6-1 1-10 2-4 2v4l7 3-5 8-2 1-3 5-4 5-13 2-14 1-4 1-34 2-3-6-21-9 3-1 8 2h8l2-2v-6l-5-3-12-4-18-10v-1l12-1 12 2h6l2-2v-7l-9-4-3-3-4-3 1-10-1-6 1-5v-15l-3-5-11-7-2-6-6-2v-3l11-3 1-4-1-4 7-1v-7l-3-3-8-3v-2l4-2 1-9-10-3-2-2 16-1-25-5 8-8 1-3 10-1 2-5z" fill="#FFFFFE"/>
<path transform="translate(398)" d="m0 0h181l1 5 1 31 1 15-7 6-8 7-4 6-7 7-4 7-7-1-1 3-9 4-12 1 9 3 5-1 19-8 12-5 12-7 10-4 6 1-1 2-16 6-12 6-11 6-5 5-6 7-2 10v4l-7 3 3 3v2l4-3h3l-2 5-7 8-5 9-1 22-3 2-3-9v-14l4-10 6-7-18 6-11 6-13 11-8 8-7 6-3-1 4-3 3-8 9-13 3-4h2v-2l12-8 11-4h-14l4-8 5-6 4-3h2v-2l-28 2-12 4-9 6-8 9-6 10-5 13-2 9-1 19h4l1-12 4-13 7-10 9-8 8-4 3-1h9l-5 5-10 9-8 7-7 8h-2l-2 6-3 6-3 11-5 6-2 5v17l2 8 1-23 3-5 4-1 2 4v19h-2l1 3-1 10h2l2-4 15-15 4-1v3l-5 5h-2l-2 4-9 13-2 3 1 9 4 10-1 2-7-8-3-3-1 5-2 9v22l3 9-1 4-5-2-3-4-2-9v-18l2-10 4-10 1-6-3-4-2-6-7 8-3 3-5 15-1 6v38l8 11v2h2l2-9 4-5 3 9-1 18 2 13 6 10 6 5v4l-7-1-8-7-6-11-1-5-1-17-7-8-2-1 2 15v6h-2l3 9 12 24 5 6 2 8v16l-8-1-11-3-24-3-4-1 1-90v-57l-4-2 1-4 2-1 3-9v-23l-3-22v-17l-11-2v-4l8-1 6 3 2 3 2 25 2 11v29l-2 11 3-3 2-6 1-18v-49l-3-7-4-3h-11l-1-8z" fill="#FEFEFD"/>
<path transform="translate(342,885)" d="m0 0h18l12 3h4l2-3h7l5 1 2 6 9 6 19 8 18 6 8 2-1 2-15 1v7l4 3 6 2 40 4-2 2-5 2-3 7 1 6 2 5-1 7 4 5 11 6 10 8 15 8 3 2 21 2 5 3 1 3 6 4 2 5 5 3 5 1-5 6 3 1 1 6-5 2-5 1 7 4v2l-24 5-4 2-1 7-10 4h-33l-1-6 4-2h-7l-24-7-6-2v-1l19-1 3-3v-6l-6-4-13-3-1-7-5-3-16-1-2-1h-22l-16-1v6l10 1 9 2 11 1 1 3v8l-5 4v6l5 5 5 2v1h-11l-12 3-15 1-30-1-3-3-1-7 1-7-5-6-8-7-3-4 7 1 4-2 1-8 3-3 1-3 9 1 5-5 4-5 5-5-1-6-5-6 6-2 2-6 5-3 1-2v-6l-6-14v-2l-4-2h-7l-2 5 6 11v2l-10 2-8-7-4-2-4-6-17-6-1-1v-6h-17l-25-3-4-2v-5l9-3h42l3-1v-2l-20-2-15-2-3-1-1-3 3-3 7-1h20l25 5 5 2 1-10-20-2-5-2v-4z" fill="#FEFEFD"/>
<path transform="translate(1132,936)" d="m0 0h11l1 2-26 2-11 2v9l48-1 3 2v2l-5 2-10 1-1 5 20 2-6 3 1 5 20 4 8 4 1 2-3 7-10 3 1 7 9 8 7 4v1l-17 1-2 2 1 7 1 2-9 2-2 1-1 6 1 3 4 3-5 2-1 3-15 1-2 3-5 1h-148l-6 1-12-1v-1h-12l-2 1h-10l-3-1h-25l-12 1h-10l-1-2 14-3 21-2-12-1-3-2 2-4 4-1h45v-2l5 2 13 1-3-4-25-1v-4l28-1 2-1 8 1 5-1-1-1-12-2-3-2v-2h12l9 1v-5l-9-1v-2l8-2-4-6 1-4 10-2v-4h-18l-5-2 1-5 3-3 5-1-2-3 8-2 3-8h2v-2l3-2h18l3 3-7 2h-10l1 2 10 1 25-11 26-11 16-8 5-4 8-1z" fill="#FEFEFD"/>
<path transform="translate(797)" d="m0 0h199l1 18v96l1 6v32l5 15 5 24 1 9v22l-4 6-1-2v-25l-1-12-5-11-5-18-7-14-10-13-8-7-11-7-12-11-11-11-11-9-8-14-10-11-14-8-21-7-15-2-14-8-15-5-10-2-15-1-3-1-1-13z" fill="#FFFFFE"/>
<path transform="translate(584,909)" d="m0 0h21l18 2 15 4 2 1v2l12-3 4 1 1 4 18 4 3 2v5l8 4 14 6 5 3v6h-2l3 4v7l1 1v6l-6 7-9 4-2 2h-14l-1-1-8-1-4 4 2 5h16l-1 2-17 5-7 3 1 3 24 1-2 4-17 1-16 3-3 2-1 3 2 1-8 1-4 4-10 3-1 4 4 2v-2l12-3 16-1 1 4-16 5v5l2 1-10 2-1 5 2 3h-25l-8-5 2-8-1-5-5-2-4-3 1-10-6-9v-5l-4-1v-3l-10-3-10-4-1-1h-6l-4 1-14-10-2-1-14-1-2-1 1-5 6 4 1-3-5-7 2-3 2-7 9-5 7-10 3-6 6-10 2-4 7-3-2-1 1-4 7-2 2-2z" fill="#FEFEFD"/>
<path transform="translate(709,608)" d="m0 0 4 1 3 7v4h9l2 2 2 10 12 9v2h2l6 9 3 8v15h7l9 3 6 5 4 14 10 9 2 7h2l7 11 5 8 6 7-3 4-1 10 5 2 11 4 4 2h7l-11-9-2-3 13 1 18 4 2 1v3h14l6-2 6-5 5 1-2 6 9-1 4-4 8-2 1-3-7-1-2-2 1-5 6-4-2-3 1-6 5-1v-8l2-2v-7l2 1 1 10v13l2 3v6l4 1 1 2-3 3h-5l-2 7-3 2h-9l-2 5-1 1-18 1-15 6h-31l-13-5-11-6-8-7v-17l-13-11v-5h2l-4-8-7-7-16-12-10-6-9-4h-11l-8 4-9 1-5 9h-2v5l-2 2-11 2 1 3 7 3 6-1 17-5 17-2 9 3 4 5 4 9 4 7 3 7 9 10 10 10 6 8 6 2 1 4-1 4 6 1 5 5 2 7 22 4 14 3 9 1 5-2 5 1 2 3 4 2 1 2h12l4-3 5 1 7 3-1 4-5 1h-29l2 6-5-3-1-6-12-1-17-4h-7l-13-4-20-4-3-3 1-4 4-1v-2l-5-1-5-3-17-12-15-15-6-7-5-9-2-9-23 2-10 2-1 10 1 1 8 1 2 2v6l5 3-1 7-4 4h-2v-5l-7-1-1-7v-2l-7-3h-7v2l6 2 4 4-1 5-2 2-9-2-2-1-11-1-2 10 2 3v10l-4 5-3 2h-3l1 2v10l-1 5v11l-2 8-4-1-3-9-1-2h-8l-14 4-5 7-5 5 3 1v8l-2 4-10-1-1-4 3-9 5-8h2v-3l3-2 2-5 10-6 2-5 7-1 2 3 3 1v-27l4-13 3-5-1-7 3-4 12-3-5-10-6-4-6-7-1-7-5-1v-3l-13 2-10 3v19l-1 7 1 9-3 5-4 4 4 2 1 6-3 3-8 3 8 4 1 5-4 5-2 1v8l-3 5-3 7-5 4h-2l1 7-5 5-7 3-4 2-5-4v-7l3-2 6-1 6-9 5-5-1-11v-20l5-16 7-12 1-8 1-21 4-6 15-6 7-1h8l6 3 1 3 4 1 1 7 5-1 3-4h2v-6l5-5 5-6 5-1 3-5 5-3 9-2 2-1 9-1h18l8 1 2-3-1-7-10-7-1-3 1-3-6-1-9-7-10-4-2-6v-2l-9 6-7 6h-2l2 5 2 2v5l-4 3-7 2 1 5-3 5-4 3 1 1v5l-3 3-6 1v2h2l1 3-3 4-3 1h-7l-4-2v-5l-4-2v-5l5-3 9-1 1-5 8-5-10 3h-6l-1 2-1-3h-2l-1-4 3-2h5l4 1 10-4-8-3-1-3 2-2h7l1-3h-7l-2-1 1-3 9-7-11-2-2-2 1-5 16-2 3-3 7-2 5 1 2 4-2 3-6 1 1 4-1 2 10-8 5-9 4-3 1-7z" fill="#FDFCFC"/>
<path transform="translate(742,338)" d="m0 0h37l26 3 28 1 21 2 16 4 10 4 9-1 16 5 10 5 10 7v3l-4-1-7-3-20-6-2-1 1 5-4-1-9-4-17-7-11-2-36-2-26-2-13-2h-28l3 2-1 2-7 1-4 2 20-1h44l14 2 13 1 9 4 25 4 5 3 3 4 1 9-2 7h3l3-12 3-4 2 1 7 5 12 2 3 2 6 2 5 4h-7l-20-8-8-1v11l19 1 11 2 23 1-1 2-3 1h-34v2h-15l-1 26-1 7-1 6-8 4-22 3-22 1-17 3-7 2h-31l-25-7-24-7v-1h8l21 6 27 6h20l12-3 18-3 16-1 20-4 8-3-1-6 2-1 1-22 1-7-4-1-2 12-5 12-5 7-7 4-8 1-6-5v-2l-6 3-55 7-13 2-14-1-9-6-3-3-7 1v-54l-4-2-2-4 1-6 3-3-3-1 1-4 9-5 5-3-5-2 1-3z" fill="#FFFFFE"/>
<path transform="translate(510,325)" d="m0 0v3l-3 4 1 2h26l13 2 2 2-5 2-37 1-1 4 6-1h21l16 3 1 1 18-1 30 1 29 2 22-1h17l1 6 3 9 3 1 1 4h3l1-5v-6h2l2 10h26l10 2 1 2-6 2-10 1h-22v33l-2 3-2-6v-30l-4 1-4-3-3 14-2 18-5 4-7 3-1 6h-10l-7 2-11 1h-25l-22-3-15-3v-3l-1-4-3-7-5-20-5-10-2 16-1 2h-3l-1-16-1-9-21-1-9-1-2-1-2 22-3 2-3-7v-2h-2l7 16-1 3-8-15-2-3-7-3-5-4-3-6 10-2 3-3 4 11 5 2-1-2-1-21 2-5 1-14 5-3z" fill="#FEFEFD"/>
<path transform="translate(776,920)" d="m0 0 24 1 9 3 1 5-4 2-14 2 6 5 3 7 9 9 2 6 13 3 1 3h-17l1 6 1 4 2 2v6l9 1 5 3 16-1 1-2 9-2 4 8 2 1v-2l5-2h10l3 1 1-3h12l-2 3h-6l1 5-6-1-19 1-7 2v2l2-1h13l11 2 1 2h-13v2l7 1 1 4h-3-16l-1 3v-2l-4 1h-12l-14-2v3l9 1 3 2v2l-2 1h-10l-5-1 1 2 9 2-1 5-18 2 9 2v4l-5 1h-12l4 5 3 2-7 2-40 1h-5l-3 2h-15l-6-1v-1l13-1v-6l-27-1-3-5-3-3 17 2v-4l-23-5 1-3h22l3-1 1-4-22-4 1-3 8-2h25l3-3-1-3-2-1-15-1 1-2 3-1-5-2v-2h6l2-1 1-4h22l18-4-28-1-3-6 2-3 9-2 8-3-11-1-2-4 3-1-1-2-6-1v-3l7-2 5-3 17-3-11-1-3-2v-2h-13v-4l23-7-28-1-10-2v-2l8-2z" fill="#FEFEFD"/>
<path transform="translate(381,538)" d="m0 0h7l-3 4 100 1 16 2 14 1 39 1 9 4h13l7 1 36 1 9 1 4 2 59 1 36 3h44l16-1 1-2 94-1h56l32-6 31-4 46-3-1 3 17 2 5 10v3h-3l1 10v50l-3 8-1 5v48l2 29 3 27 3 20 1 12v53l-2-1-1-40-5-28-4-23-3-28-1-17-1-38v-70l-2-16-66 1-13 1-3-1h-6v5l-2 1h-9l-2-3-1 4-5 1 1-4-19 1h-18v16l-3 19-2 3h-3v-10l-3-11v-18h-17l-3-2-121-1-40 1h-36l-30-3-17-1-44-1-14-3h-23l-1 10v6l-3 2-1-2 1-5v-11h-44l-17-2-44-1-76-1 1 4 2 1-5 10-1 6h-1l-2-14v-7l-5-2 1-5 4-2 14-1z" fill="#FEFEFD"/>
<path transform="translate(263,448)" d="m0 0h8l4 8 6 7 5 5 6 7 6 9-2-10 6 5 3 9v22l-2 6-1 17-9 59-4 11-3 4-1 6-2 48-3 12-7 11-3 16-5 22-4 24-2 7-1 13v15l5 21 15 15 6 7-2 6-4-1-7-5v-2l-4-2-10-9-5-5-4-13-3-9v-11l1-13 3-13 1-15h2l3-14 5-16 4-20 6-9 3-4 3-11 2-28 1-16 4-18 3-10 1-7 1-18 3-3 1 2 4-26v-4l-4 4-5 1 3-9 4-9h-10l-16-2-9-2-25-3-21-3-28-3-62 1-35-3-39-1-6-1 1-2 40-2 5-1 1 2h2l1-5-5-2-2-2 14-1-1-6-13-2v-1h10l25 4 10-1 15-2h15l14 2 10 3 6 3h68l31-3-3-3v-2h-2l-4-6-5-5-6-8-7-11z" fill="#FFFFFE"/>
<path transform="translate(238,792)" d="m0 0 3 1-1 11 5-1 1 8 8 6 1 2v9l-8 5-5 3-1 2h12l2 1-1 3-15 2-1 2h22l9 1v4l-5 1h-11v2l9 1v3l-16 2-3 2-1 3 15 1 1 3 8 1v2l-11 2-15 3-14 2-1 1 2 2h-13l-26-3v-2l14-4 12-3 1-4h-27l-24-2h-46l4-3 5-1v-5l4-3 13-2 9-6 7-4 1-6v-7l5-2 6 3 8-1 21-8 20-9 11-3 3-11z" fill="#FFFFFE"/>
<path transform="translate(167,564)" d="m0 0h3l-1 14-3 17-5 13-1 2h16l6 3 1 5-4 4-7 2 2 19v11l-6 3-2 3v25l2 25 1 105-4 1-1-50-1-79-2-35v-29h-20l-7-6-5-2h-11l-8 4-5 6-3 14-1 14-1 3v9l1 9-1 9-3 3h-2l2 34 4 22 2 34 2 24v15l-3 9-3 3-1-6v-24l-2-17v-25l-2-18-3-16-1-44v-52l-7-6-9-2-1-3 1-5-6-7v-2l3-1 25-1 11-7 13-10 16-13 3-2 5 1 1 4-14 12-11 9-10 8v7l10-4 4-1-1-6 10-1 11-10 8-7 13-12z" fill="#FFFFFE"/>
<path transform="translate(621)" d="m0 0h11l1 3 2 16 2 6 2 12 1 4 16-3h13l15 2 13 4 3-1 2 1h41l12 3 17 8 18 1 12 5 9 6 4 3 20-1h18l14 2 11 4 1 1v-3l-12-5-22-6-36-6-23-2-6-2-1-5 4-3h17l30 5 21 6 15 6 6 3-3-5-2-4 19 5 12 6 6 5-2 1-8-4-4-1h-12l5 7-2 6 11 6 12 9 11 10 9 12 3 5 2 11-6-3-9-9-11-9-18-13-19-10-9-3-18-1-9 2-2-6 1-2h-5v2l3 1 6 11 3 7 2 13-1 2-2-1v-7l-10-17-2-2-6-1-7-3-5-2h-6l-2-2 1-5 5-2h4l-4-4-12-6-5-1h-23l-2-1 1-4 3-2-7-1h-38l-13 1h-16l-3-2 2-4 4-1v-2h-14l-29 3-11 2 1 6-10 5-9 2-1-2-7 1-1-5 6-7 16-8 3-2-10-4-6-1-1-7-1-23z" fill="#FEFEFD"/>
<path transform="translate(1308)" d="m0 0h12v395l2 6-1 15-4 26-2 9-7 1-1-5 2-25-1-196z" fill="#FFFFFE"/>
<path transform="translate(938,1298)" d="m0 0h16l8 4 4 3 16 4 14 7 11 9 10 13 6 12 6 19 4 20 1 15-6 2 1 5 3 3-7-2-1-1-2-23-5-22-7-19-7-11-2-2 10 16 6 17 1 7 1 22v13h-4l3 5v6l-9-3-8-2v-1l6-2v-5l-23-4-17-2 2-9 12 1 15 4 7 2h4l-1-4-9-5-11-4-14-2-2-13 9 3 20 11h3l-1-4-13-8-19-9-2-9v-4l10 3 21 10 1 3 5-1-2-4-16-9-18-7-6-2-4-6 1-2 20 7 10 5 1 2-1 2 7-1-1-5-8-4-5-5-17-8-6-2 1-2 15 3-3-5-8-3-12-2-2-1-10 1-5 2-21-1-1-6 14-2-7-2-21-1v-1l11-2 15-1 8-5z" fill="#FEFEFD"/>
<path transform="translate(596,1216)" d="m0 0 4 2 5 9 1 8v11l-3 18-5 16-3 4-5 15-5 11-3 6-8 15-5 12-2 3-2 8-3 1v-10l-4-6-6-14-8-16-4-16v-33l1-15 3-14 2-2 17 1 15 4v1l-13 1-13-1h-5l-2 7v8l3 2v4l9 2 8 5 1 1-1 17 3 7 1 2v6h3l-1-18 1-6v-11l-5-6 8-1 1-4v-2l-4-1-23-1 1-7 8 1 24 8 7 3 6 1-1-5-14-6v-1l17-1v-5l-9-3-5-2-2-5-9-4v-1h22z" fill="#FFFFFE"/>
<path transform="translate(627,1240)" d="m0 0 4 2 12 12 8 7 1 2-5-1-10-5-8-6-7-2 1 4 11 8 10 9 7 7h3l-1-7 10 2h6l1-5-1-2 8 1 1 3v14l-4 10-4 9-6 10-4 8-12 11-16 8-8 7-8 8-7 5-1-1v-16l1-30 2-14 5-18 2-8v-14l3-10z" fill="#FFFFFE"/>
<path transform="translate(373,1269)" d="m0 0h35l7 1v2l-6 2-14 3-2 1-1 3h22l14 1 3 1 1 4-18 4v6l15 1v5l7 4 7 3 9 22 5 23 2 17v10l-6-1-9-6-8-7-11-7-8-5-4-5v-1h9l3 1-1-6-5-3-11-1-6-7-8-16-8-13-4-9-6-15z" fill="#FFFFFE"/>
<path transform="translate(91)" d="m0 0h5v113l1 10-3 3 1 23 2 36 1 46 1 83 4 66 2 38 3 28 3 18-23-3 6-12 1-14 2-5v-31l-3-48-1-7v-8l-1-4-2-30-1-7v-7l-1-5-3-53-1-46v-49l1-35 4-59z" fill="#FFFFFE"/>
<path transform="translate(443,1229)" d="m0 0h11l19 1 15 3v1l-16 2-15 1-1 2-5 1 1 4 4 1 13 1v5l-5 4-7 1-1 4 9 4 5 7 1 4 1 22 3 3v-20l-2-12-3-9 5-4 1-2h11l22 3 2 2-8 3-5 1-5-1v4l6 2 5 3-2 10 2 4 12 5 2 4 2 8 3 8v27l-3 8-5 5-7-6v-2h-2v-2l-4-2-10-8-7-6-2-6-3-3-5-3-18-36-6-10-8-16-1-3v-15z" fill="#FFFFFE"/>
<path transform="translate(1385,1352)" d="m0 0 3 3 8 11 9 10 6 7 5 5 9 11 5 5 14 22 4 5v17h-65v-21l-2-47v-19z" fill="#FFFFFE"/>
<path transform="translate(1294,463)" d="m0 0 5 1 4 4 16 1-1 2-8 4-3 1v5l-3 1v4l13-1 17-4h12l-1 2-9 2-1 5-7 4-175 1v-6l-13-2-4-4 2-7 4-2h3l1 6 30-2 31-1 27-2 14-2 22-2h21l3-2z" fill="#FFFFFE"/>
<path transform="translate(794,364)" d="m0 0 18 1 7 4 9 6 9 11 3-2 5 2v14l-2 2-4-1-2 5-5 4-9 4-13 2-26-1-7-3-5-5-6-9-3-7v-7l3-7 4-5 10-6 3-1z" fill="#200202"/>
<path transform="translate(1242,799)" d="m0 0 2 4 4 6 8 3 17 7 14 8 17 8 12 5 18 7 5 2v1l-19-1h-31l-7 2h-10l-4-3h-67v-2l11-1v-6l-3-3-17-4-2-2 6-3 1-6h24l2-2v-6l9-5 8-6z" fill="#FFFFFE"/>
<path transform="translate(612,359)" d="m0 0h9l14 6 6 7 2 6-1 10-8 13-6 4-3 1-25 1h-17l-6-4-8-8-2-5v-14l4-8 5-4 9-3z" fill="#200202"/>
<path transform="translate(633,1366)" d="m0 0 10 1 8 1 19 4 14 3 5 3 1 10 5 2 8 7 5 4 4 7 1 4v10l-4 9-8 7-3-4-2-4-10-7-4-3 8-8 3-2 1-5-3-5-9-4-3-2 3-3v-4l-2-1h-10l-20 2v5l3 1 15 1-1 6 17 3 4 4-3 2-12 3-3 1v3l5 1 1 6 11 8 5 6v3h-9l-9-4-7-8-4-9-5-5-3-7-7-6-8-7-9-11-4-9v-5z" fill="#FFFFFE"/>
<path transform="translate(1019,369)" d="m0 0h24l20 6 26 12 5 5h-5l6 8 6 11 4 10 4 18 3 21 5 10 6 28 1 11v67l4 27 3 23 1 4v8l-1 2h-2l-3-9-3-13-5-36-1-7-1-67-4-24-4-17-4-5v-6h2l-7-28-5-13-4-7-11-8-7-5-21-6-11-6-15-8h-6v4l-3-1v-7z" fill="#FFFFFE"/>
<path transform="translate(725,757)" d="m0 0h12l6 4 7 9 1 4 4 4v7l3 3v12l1 7h9l3 3-1 4-2 2h-9l-1 6-4 1-1-8-7-8-7-15-5-14-2-4h-6l-13 18-2 3-2 6-2 4 8 1 1 1v5l-2 2-8 1-1 1h-6l-3-2-8-1-9 2-3 3-2 7-7 2h-2v2l-3 1v-2h2l-1-7 2-2 2-5 8-3 5-6h5l1-1h7l-1-5 5-11-1-7 4-3 1-10 3-2 8-1 4-2v-2z" fill="#FEFEFD"/>
<path transform="translate(62,1365)" d="m0 0 2 2 1 5 1 17 1 3v11l2 25v15l-3 5h-53l4-6 5-7 10-21 8-19 3-3 3-1 5-5 9 1 3 1z" fill="#FFFFFE"/>
<path transform="translate(274,123)" d="m0 0 1 3-1 3 5-1 2-2 4 11 3 8 2 4 1 9 1 5-4 5-12 6-12 7h-10l-5-5-9-22-3-7 3-6 5-4 14-9 5-2 7-1z" fill="#200202"/>
<path transform="translate(1134,508)" d="m0 0h2l2 3h25l17-1h53l3 3 2 1h14l28-2h13l14 1 38 1 1 3 8 2 6 1-2 3h-27l-63-2h-34l-43 2h-41l-19-2-2-1v-6z" fill="#FFFFFE"/>
<path transform="translate(1086,630)" d="m0 0h7l12 5 16 10 14 10 11 10 8 7 2 2 20 6 19 9 19 12 11 9 12 12 9 14 5 11 4 15 1 15-1 7-5 1 1-6v-9l-4-12-8-16-7-12-9-10-10-9-13-9-8-6-25-11-1 2-13-1-5-5-16-1-6-7h13l-5-5-8-7-18-12-12-7-13-5-1-4z" fill="#FFFFFE"/>
<path transform="translate(982,1059)" d="m0 0h106l23 1-4 2h-5v6l-2 6-8-3v-1l-10-1-98 1-21 1h-27l-15-4-1-4 44-3z" fill="#FFFFFE"/>
<path transform="translate(885,931)" d="m0 0h21l4 4 3 1h19 4l15-1 3 2-6 3 1 6v3l-1 5 2 6-8-1h-48l-9-6 2-3h11l10 2 2 1v-3l-16-2-7-2-2-3-3-1-19-1-1-2 21-7z" fill="#FFFFFE"/>
<path transform="translate(248,558)" d="m0 0h3l4 8 3 22 1 10v13l-3 6h-2l-2 4-2 12-1 22h-1l-1-5-1-16v-11l-13 2-14-1-14-4-3-3 1-4 1-1 10 1-1-4v-25l2-9 4-5 4 2 2 11v28l-1 4 22 1-1-11v-4h4l-3-23v-12l1-7z" fill="#FFFFFE"/>
<path transform="translate(340,1328)" d="m0 0h9l3 9 6 4 2 7 7 6 5 5h5l1-1v-5l-8-9 4-5-1-5-1-4h4l8 16 5 14 2 18-1 4h-12l-21-6-14-8-3-4h12l6-1 3 2-1-3-16-6-7-3 3-9 1-2v-11z" fill="#FFFFFE"/>
<path transform="translate(887,1383)" d="m0 0h14l3 8 10 2 1 1v6l-8-2 1 8-1 3h-2l6 11 11 5 12 4 6 4 4 1 5-5 2-1 23-1 4 4 18 6 15 6-1 2-10-2-3-1v-2h-7l-27-9h-6l-3 2 1 4 8 5 12 5v1h-39l-8-4v2l-5-2-14-8-3-1 1-2 7-1 1-6-3-3-3 4-5-1-6-5h3l5 2-5-6-3-7-5-6 3-2v-7l-9-11z" fill="#FFFFFE"/>
<path transform="translate(223,188)" d="m0 0h2l-1 20h2l1-20 5 3 7 8 9 8-2 2-21 5-5 1 3 6 3 7 3 1-3-5-2-7 12-3 15-3h3l1 5-3 4-7 4-13 13-8 1-13-11-8-5v-2l-5-2v-5l5-1 1-7 8-8z" fill="#200202"/>
<path transform="translate(552,330)" d="m0 0h29l26 3 15 1h27l35-1 5 3 3 5v9h10l14 1 6 3-1 3-1-2-8 1-22-2-4 2-5-1-1-4 2-2-1-6-9-2-3-2-5 1-2 1-12 1h-31l-31-3-7-1-30-2-3-2 1-3z" fill="#FFFFFE"/>
<path transform="translate(391,380)" d="m0 0h17l29 3h36l11 3 2 2v4l-2 1-9-1-4-1h-8l-2 2h-19l-16-1-21-3h-12l-9 7-4 5-5 4h-6l-5-2-2-6 3-5 3-3 7-3 3-3 6-1 5-1z" fill="#FFFFFE"/>
<path transform="translate(604,1395)" d="m0 0 6 1 12 5 2 1h9l12 8v1l-11 1-5 2-1 4 17 3-1 3h-9v4l7 2 2 4 6 2v6l-7 6h-12l-8-12-9-16-5-9-5-6-1-9z" fill="#FFFFFE"/>
<path transform="translate(995,1286)" d="m0 0 5 1 9 6 10 9 9 10 9 15 10 21 3 8v16l-2 14-4 2-3-9-3-23-10-23-9-15-9-11-16-16z" fill="#FFFFFE"/>
<path transform="translate(913,1266)" d="m0 0 18 1 8 5-1 3-5-1-16 7-31 9-24 10-7 4h-2l2-5 6-9 16-9v-5l-1-2 15-5h6l-5 5-7 6-4 5-1 4 5-2 10-9 5-5 4-2 1-3z" fill="#FFFFFE"/>
<path transform="translate(461,1410)" d="m0 0 4 2 8 7 7 8 11 18 1 3h-38l1-19 1-15 2-3z" fill="#FFFFFE"/>
<path transform="translate(24,607)" d="m0 0 28 1 13 2 4 3-1 6-7 3h-16l-11-2v16l-2 42-3 5h-2l1-6v-19l-2-15v-24l-4-2v-8z" fill="#FFFFFE"/>
<path transform="translate(88,559)" d="m0 0 3 1-1 5-10 9-16 9-42 18-5-1-1-4 5-5 14-8 35-15 14-7z" fill="#FFFFFE"/>
<path transform="translate(935,401)" d="m0 0 4 5 5 12 6 6 9 3 4 5-3 3-2 3-3-5-2-1h-9l-3 1-1 3-1 40-5 14-6 9-5 1 5-13 1-15 2-2 1-26 1-2h4l-2-34z" fill="#FFFFFE"/>
<path transform="translate(580,1415)" d="m0 0 1 3 11 2 12 11 4 6 5 9 1 2h-34l-1-28z" fill="#FFFFFE"/>
<path transform="translate(203,556)" d="m0 0 4 1 3 10-1 15-4 17-4 10-7 6h-5l-2-6 5-12 5-23 4-16z" fill="#FFFFFE"/>
<path transform="translate(1408,1064)" d="m0 0h23l17 1v5l-12 1-53 1h-31l-9-1v-4l9-2z" fill="#FFFFFE"/>
<path transform="translate(532,1413)" d="m0 0 5 1 5 5 8 11 8 15-1 2-3-2h-15l-2 3h-13l5-18z" fill="#FFFFFE"/>
<path transform="translate(943,1343)" d="m0 0 5 1 2 3-1 21-2 15-1 22-3 3h-2l-2 4h-3l-1-1v-8l1-2 1-19 1-8 1-26z" fill="#FFFFFE"/>
<path transform="translate(493,390)" d="m0 0 7 1-1 13 5 16 3 4 1 7-2-1v13l4 14 1 2 2 16 2 8-4-4-8-14-5-14-1-5v-17l4-3 1-1-8-5-1-19z" fill="#FFFFFE"/>
<path transform="translate(1395,675)" d="m0 0 5 2 4 3v2l5 2 2 5-1 5 1 3 3-3 4-7 8-7 6 1 3 1-1 3-8 4h-2v2h-2v5l4 2 7-1 6 2v3l-11 2h-10l-5 2-6-2-1-1-9 1-10 2v-5l8-3 8-2 1-3h-2l-2-5-1-5-2-1 1-2-3 1-2-5z" fill="#FFFFFE"/>
<path transform="translate(1390,1046)" d="m0 0 53 7 5 1v9l-16-1-37-5-15-3-2-3 9-2z" fill="#FFFFFE"/>
<path transform="translate(934,966)" d="m0 0h10l4 2v5l-9 2-2 2v7l-12 1-2 2-10 1h-17l-2-2 6-1 3-7 2 1v5l3-1-1-8-2-5 20-1 10 1z" fill="#FFFFFE"/>
<path transform="translate(1437,280)" d="m0 0 3 1-1 7-3 1-3 6 6 2v3h2l1 4-4 2h-8-3l-6 1-7-3v-2l-3-1-3-5v-7h4l3-5h9l4-1 3 1 1-2z" fill="#FCFCFB"/>
<path transform="translate(1382,1090)" d="m0 0h55l7 2 1 4-9 1 12 3v5l-27-5-26-1-7-2-9-3 1-3z" fill="#FFFFFE"/>
<path transform="translate(1437,104)" d="m0 0h3l-1 7-4 1-1 6 5 3 2 3-1 5-9 1h-4-7l-9-5-1-5h-2v-4l1-4 4 1 2-5 4-1h12z" fill="#FCFCFB"/>
<path transform="translate(1437,16)" d="m0 0h3l-1 7-4 1-1 6 5 3 2 3v4l-5 2-8-1-1 1h-7l-8-5-2-5h-2l1-4-1-4 5 1 1-5 5-1h11l2 1v-2z" fill="#FDFDFC"/>
<path transform="translate(162,1282)" d="m0 0h1l1 46 2 28 5 56 2 36h-4l-1-5-3-46-5-50v-31z" fill="#FFFFFE"/>
<path transform="translate(308,381)" d="m0 0 5 1 16 7 10 8 8 7 7 8 12 14 10 10 8 10 7 13-1 2-7-10-7-8-7-9-6-4-7-8-10-8-8-6-11-9-6-5-5-6-8-5z" fill="#FFFFFE"/>
<path transform="translate(400,1417)" d="m0 0 7 6 6 16 2 9h-27l2-1-2-4-2-1 2-6 11-18z" fill="#FFFFFE"/>
<path transform="translate(1078,1085)" d="m0 0h15l9 2v2l-28 3-8 1v-3h-10l-2 1-1 3-59-1-2-1v-3l2-1 32-1h46z" fill="#FFFFFE"/>
<path transform="translate(1e3 279)" d="m0 0h5l4 7 2 9 1 9v16l-4 17-3 9h-1l-1-19-4-15v-7l2-5v-10l-3-5 1-5z" fill="#FFFFFE"/>
<path transform="translate(740,910)" d="m0 0h40l14 2 10 3v2l-3 1-15 1-48-1-9-1-3-2 1-3z" fill="#FFFFFE"/>
<path transform="translate(1385,1076)" d="m0 0h43l20 1v5l-56 6-16 1 1-2 23-4-16-1-5-2 1-3z" fill="#FFFFFE"/>
<path transform="translate(1392,1107)" d="m0 0h13v2l43 2v6l-40 1h-24l-2-5-6-2v-1l12-1z" fill="#FFFFFE"/>
<path transform="translate(217,1074)" d="m0 0 37 2 27 3v2l-12 1-5 3-63-3 2-4 13-1z" fill="#FFFFFE"/>
<path transform="translate(136,462)" d="m0 0 39 1 36 3 46 2 3 2h-71l-25-1-25-2-4-1z" fill="#FFFFFE"/>
<path transform="translate(910,1325)" d="m0 0 20 1-2 5h-14l12 1 1 4-2 3h-19v2l18 1-1 5-20-3-9-3-4-4-1 1-1 2-8-2 4-1v-2l13-1 2-4 10-1z" fill="#FFFFFE"/>
<path transform="translate(1401,597)" d="m0 0h8l7 2 1 4v2l1 1v7l-1 2h2v2h2l-1-3 9-3 2-4 3-7h5l-1 5-1 1 3 2-7 8-6 3h-11l-8-2-5-5-1-2 1-2-3-1v-2h-2l2-5z" fill="#FDFDFC"/>
<path transform="translate(1402,509)" d="m0 0 9 1 5 1 1 5h-2v2h3v9l6-2 4-2 4-6 1-4 5-1 1 3-1 3h-2v2l4 1-6 7-5 2-1 1-11 1-9-3-6-6-4-8z" fill="#FDFDFC"/>
<path transform="translate(1073,606)" d="m0 0 5 1 11 7 14 8 4 5 9 2 2 6 5 5-5-2-11-4-13-5-16-9-7-6v-6z" fill="#FFFFFE"/>
<path transform="translate(1402,641)" d="m0 0 9 1 5 2 1 4h-2v2h3v9l6-2 4-2 4-7 1-3 5-1 1 3-1 3h-2v2l4 1-5 6-6 3-1 1-10 1-10-3-6-6 1-3-5-2 1-4z" fill="#FDFDFC"/>
<path transform="translate(365,638)" d="m0 0h1l2 19 1 18 1 41 3 49 2 21 1 22v36l-2 1-1-4v-23l-1-26-4-49-1-16-1-68-1-11z" fill="#FFFFFE"/>
<path transform="translate(1425,56)" d="m0 0h10l1 3-2 2-6 1h-14v6l3 1v2l16 2 1 1v6l-12-1-7-1 2 4 5 4v2l5-1 9 3 1 4h-14l-10 1-4-3 8-3 1-3-4-1-4-5 4-6v-2l-4-3v-6h2l1-5 2-1z" fill="#FFFFFE"/>
<path transform="translate(1406,147)" d="m0 0 6 1 2 3h2v3h4l1 2 7 4v2l8 1v4l3-1 6 3v6h2l-1 6-2 1-3-5-1-5h-5l-4-3-5-2h-4l-7 7-5 4-1-3 3-7 5-5 1-2-10-3-5-2-1-4z" fill="#FDFDFC"/>
<path transform="translate(691,438)" d="m0 0 11 1 10 5 5 6 2 12-1 7h-2l-1-8-11-8-7-3-13-2-3-2 1-5 3-2z" fill="#FFFFFE"/>
<path transform="translate(1403,241)" d="m0 0h3v7l-2 1-1 3 10 1v2l9-1 1-2 4 1 1-6 4 1 2 10-2 1h-29l3 6-2 4-4 2-3-6v-7l-6 1-2-1 1-5 3-2 5-1 1-7z" fill="#FCFBFA"/>
<path transform="translate(1245,1300)" d="m0 0h1l1 18 1 101v29h-2l-1-2-1-34v-96z" fill="#FFFFFE"/>
<path transform="translate(437,1048)" d="m0 0 4 1 3 4-60 2-23 1 1-7z" fill="#FFFFFE"/>
<path transform="translate(1439,1082)" d="m0 0h9v18l-12-2-3-2h12l-2-4-6-1-53-1 1-2 44-5z" fill="#200202"/>
<path transform="translate(856,1370)" d="m0 0 15 7 4 12 1 1 2-9 7 4 8 9 1 5h-4l-3-6-2-1-1 6-5-2-10-5h-9z" fill="#FFFFFE"/>
<path transform="translate(1417,325)" d="m0 0 6 2 3 4 1 6 1 3v6l6-1 2 4-7 2-7-1-1-4 1-3v-7l-3-5h-8v2h-2l-2 5-4 6-5 4-8-1-3-3v-3l-4-2-4-5-1-6 1-2 3 1 2 6 5 7 8 2h3l2-4 3-5h2l-1-3 4-4h6z" fill="#FBFBFA"/>
<path transform="translate(600,283)" d="m0 0h25l15 5 11 6 1 4-5-1-5-2-26-4-19-1-3-2 2-4z" fill="#FFFFFE"/>
<path transform="translate(1410,552)" d="m0 0h6l5 5 2 1 1 11-1 1h22l3 2v2l-19 1h-21l-5 3-2 1 1-21 3-1v11l7 1v2l4-1 2 1-2-10-3-3-9-2v-2z" fill="#FEFEFD"/>
<path transform="translate(800,382)" d="m0 0h11l6 3 1 5-3 3-5 3-6 4h-8l-3-5-4-4 1-5z" fill="#FFFFFE"/>
<path transform="translate(30,1083)" d="m0 0h42l30 2 9 1v1l-13 1h-58l-24-1-2-2 1-1z" fill="#FFFFFE"/>
<path transform="translate(234,629)" d="m0 0 4 1 1 2v43l-6-5-3-1v-32l3-7z" fill="#FFFFFE"/>
<path transform="translate(42,1118)" d="m0 0h75l4 2v1l-5 1h-32l-84-1v-2h29z" fill="#FFFFFE"/>
<path transform="translate(861,1396)" d="m0 0 11 5 10 2 9 8v1h-7l-5-2-6 1 1 5 10 3 11 8-4 1h-12l-7-10-9-15z" fill="#FFFFFE"/>
<path transform="translate(1244,1168)" d="m0 0h1l1 27v13l-2 30-1 10h-1l-3-65 1-10z" fill="#FFFFFE"/>
<path transform="translate(128,1055)" d="m0 0h18v2l-9 2-21 3h-21l-15-2-18-2v-1l6-1 8 1 8-1h38z" fill="#FFFFFE"/>
<path transform="translate(992,1263)" d="m0 0h12l17 8 19 13 8 8 6 9-2 1-5-5-8-7-21-14-16-8-13-2v-2z" fill="#FFFFFE"/>
<path transform="translate(1064,118)" d="m0 0 5 1 2 11 1 38 2 24 1 9-2 3h-2l-3-26-1-49-3-6-5-4z" fill="#FFFFFE"/>
<path transform="translate(631,1283)" d="m0 0 4 1 7 5 4 6-1 5-4 3h-2v-7l-5-6-2 4v8l1 7-5 13-2 1 1-6-3-7v-9z" fill="#200202"/>
<path transform="translate(1410,195)" d="m0 0 6 1 7 7 1 9-1 6-2 1h-9l-1-3-2-1 1-2 10-1-2-7-3-4-9-2 1 7 2 4-1 4h-2v6h-3v-10l-3-1-1-5-1-4 4-4z" fill="#FFFFFE"/>
<path transform="translate(102,569)" d="m0 0 2 1-9 10-14 11-13 8-12 5h-6l2-4 16-7 11-8 16-12z" fill="#FFFFFE"/>
<path transform="translate(1e3 362)" d="m0 0 2 1 1 5-3 10-5 10-7 9-8 6-14 8-5 3h-2v-3l11-7 6-7 4-1 2-4 4-5 8-5 5-11z" fill="#FFFFFE"/>
<path transform="translate(555,434)" d="m0 0 3 1 50 1 10 3h16l11-2-2 2-14 3h-13l-5-1-44-1-10-1-3-2z" fill="#FFFFFE"/>
<path transform="translate(652,1415)" d="m0 0 1 3 4 1 8 16 3 9v4h-10l-3-1 1-4v-10l-2-3-5-1z" fill="#FFFFFE"/>
<path transform="translate(543,121)" d="m0 0h3l-2 5-7 8-5 9-1 22-3 2-3-9v-14l4-10 8-9z" fill="#FFFFFE"/>
<path transform="translate(788,289)" d="m0 0h28l11 4 6 5-3 1-14-3-32-1-1-4z" fill="#FFFFFE"/>
<path transform="translate(834,1347)" d="m0 0h9l11 3 2 5 19 2 7 2v1l-19 1-1 3h-6l-1-6-12-3-14-4 2-3z" fill="#FFFFFE"/>
<path transform="translate(606,375)" d="m0 0h8l4 4-1 6-6 4-4 1h-8l-2-1v-10l4-3z" fill="#FFFFFE"/>
<path transform="translate(56,1237)" d="m0 0h1l2 27 3 53v18l-2-4-3-31-1-15z" fill="#FFFFFE"/>
<path transform="translate(398,1085)" d="m0 0h37l3 5v2h-29l-11-6z" fill="#FFFFFE"/>
<path transform="translate(493,390)" d="m0 0 7 1-1 13 5 16 3 4 1 7-4-2-3-5-7-4-1-19z" fill="#FDFCFB"/>
<path transform="translate(933,1086)" d="m0 0h13l33 3 4 2-4 3-29 1-6-5-11-3z" fill="#FFFFFE"/>
<path transform="translate(145,1073)" d="m0 0h6l-4 3v5h-30l-29-2v-1l36-1 4-3z" fill="#FFFFFE"/>
<path transform="translate(930,105)" d="m0 0 7 6 10 11 9 13-3 1-7-3-12-13-4-13z" fill="#FFFFFE"/>
<path transform="translate(373,1257)" d="m0 0h48l-2 2-10 3h-37z" fill="#FFFFFE"/>
<path transform="translate(181,575)" d="m0 0h2l-2 13-6 11-2 2-4-1-2-3 1-8 7-9z" fill="#FFFFFE"/>
<path transform="translate(965,1407)" d="m0 0 19 3 16 3v1l-7 2-23 2h-10l1-2 6-1v-3l-3-1z" fill="#FFFFFE"/>
<path transform="translate(1401,469)" d="m0 0 4 1v2l2 1h-2v2l6 1v2l7 1 8 1-1 5-5 1-6-1h-13l-5 1 4-5h2l-3-8z" fill="#FFFFFE"/>
<path transform="translate(1410,418)" d="m0 0h9l4 2 4 5v2l3 1-1 5h-3l-5-8v-2l-9-2v4h-2v10l-5 2v-3l-6 2v-3l-4-1-1-6 2-4h2l1 7 4 1 3 3 1-8z" fill="#FFFFFE"/>
<path transform="translate(269,136)" d="m0 0 1 2-3 5v7l2 2-5 2 1 6v10l-2 4h-2l-2-19-8-1-4-2 4-1 1-2h6l5-1 2-7z" fill="#FFFFFE"/>
<path transform="translate(627,1240)" d="m0 0 4 2 12 12 8 7 1 2-5-1-10-5-8-6-7-2-1 3-1-2z" fill="#FFFFFE"/>
<path transform="translate(681,963)" d="m0 0 4 1 5 4-2 6-2 2-18-2-4-4v-2l16-2z" fill="#200202"/>
<path transform="translate(351,1289)" d="m0 0h5l6 7 4 11-1 2-16-8v-6l-3-1z" fill="#FFFFFE"/>
<path transform="translate(1e3 1423)" d="m0 0 6 1 17 8-2 4-4 1-22-9-8-2 3-2z" fill="#FFFFFE"/>
<path transform="translate(1200,1086)" d="m0 0h34v3l-6 3-1 1-11 1h-9l-2-4-5-2z" fill="#FFFFFE"/>
<path transform="translate(250,1091)" d="m0 0h13l2 7-15 1h-11l-5-4 6-3z" fill="#FFFFFE"/>
<path transform="translate(397,1238)" d="m0 0h6l8 5 3 4h-33l3-3 9-3z" fill="#FFFFFE"/>
<path transform="translate(1417,325)" d="m0 0 6 2 3 4 1 6 1 3v6l6-1 2 4-7 2-7-1-1-4 1-3v-7l-3-5-6-1 1-3z" fill="#FFFFFE"/>
<path transform="translate(523 1e3)" d="m0 0 10 1 10 4v2l-10-2v3l7 5v3h-9l-7-8-2-7z" fill="#200202"/>
<path transform="translate(1415,290)" d="m0 0 4 1 12 5 3 3v4h-11l-8-4-2-4v-4z" fill="#200202"/>
<path transform="translate(1406,199)" d="m0 0 9 1 5 7v5l-5 2-5-1-2 4h-2v-3l2-1-1-5-2-4z" fill="#200202"/>
<path transform="translate(1378,925)" d="m0 0h7l4 4v3l5 1-2 2-15 2h-7l3-2-4-2 3-2h2l2-4z" fill="#200202"/>
<path transform="translate(1414,114)" d="m0 0h5v2l5 1 7 3 3 2-1 5h-7l-9-3-3-2-1-7z" fill="#200202"/>
<path transform="translate(506,1234)" d="m0 0 3 3 4 11v7l-11-4v-3-5l-4-2v-2l6-3z" fill="#FFFFFE"/>
<path transform="translate(885,827)" d="m0 0 8 1 4 3v2h-7l-3-1 1 5 6 1 2 2v4l-3 1-8-4-5-5-1-4h4l1-4z" fill="#FFFFFE"/>
<path transform="translate(1414,26)" d="m0 0h5v2l5 1 6 2 4 3-1 5-11-1-8-4-1-7z" fill="#200202"/>
<path transform="translate(313,1331)" d="m0 0 14 1 5 2v6l-4 8-5-5-10-11z" fill="#FFFFFE"/>
<path transform="translate(1083,902)" d="m0 0h51l-3 2-2 1-33 1h-14z" fill="#FFFFFE"/>
<path transform="translate(895,1361)" d="m0 0h14l9 1-1 6h-23l-2-3z" fill="#FFFFFE"/>
<path transform="translate(0,1101)" d="m0 0 11 2 22 5v1l-17 1h-16z" fill="#FFFFFE"/>
<path transform="translate(158,1155)" d="m0 0h2l2 12 1 14v13l-2 16h-1l-2-38-1-14z" fill="#FFFFFE"/>
<path transform="translate(926,342)" d="m0 0 5 3 1 21v19h-8l4-6 1-6-3-26z" fill="#FFFFFE"/>
<path transform="translate(1434,600)" d="m0 0h5l-1 5-1 1 3 2-7 8-6 3-7-1v-4l9-3 2-4z" fill="#FFFFFE"/>
<path transform="translate(628,1264)" d="m0 0 5 1 16 17 3 4v4l-5-1-11-13-7-8z" fill="#200202"/>
<path transform="translate(773,1077)" d="m0 0 11 1 7 6v1h-32l-4-2 1-1h13z" fill="#FFFFFE"/>
<path transform="translate(1079,887)" d="m0 0h3v2l47 1 1 2-34 1h-24l4-4z" fill="#FFFFFE"/>
<path transform="translate(636,830)" d="m0 0 14 6 4 2 3-3 10-3v4l-3 2-2 4-8 1v-3l-9-1-8-4-2-4z" fill="#FFFFFE"/>
<path transform="translate(866,1342)" d="m0 0 11 2 27 7-2 2-10 2-12-6-15-2z" fill="#FFFFFE"/>
<path transform="translate(233,568)" d="m0 0h4v18l-5 19h-2l1-11 1-22z" fill="#FFFFFE"/>
<path transform="translate(432,1260)" d="m0 0 7 5 7 10 6 13-4 2-2-2-2-7-5-5-7-14z" fill="#FFFFFE"/>
<path transform="translate(503,1085)" d="m0 0h27l1 5h-30z" fill="#FFFFFE"/>
<path transform="translate(878,986)" d="m0 0h12l-2 3h-6l1 5-6-1-13 1-6-1 1-3 5-2h10l3 1z" fill="#FFFFFE"/>
<path transform="translate(530,967)" d="m0 0 4 1 11 9 7 5-1 4-5-1-10-7-2-4h-2l-1-4h-3v-2z" fill="#200202"/>
<path transform="translate(693,697)" d="m0 0 4 1v2l-8 2v9h-12l-1-2 4-2v-3l-2-1 1-4z" fill="#200202"/>
<path transform="translate(1425,56)" d="m0 0h10l1 3-2 2-6 1h-14l1 9-4-1-1-4v-3h2l1-5 2-1z" fill="#FBFBFA"/>
<path transform="translate(876,1366)" d="m0 0 9 3 11 7 2 3h-13l-5-3-3-5z" fill="#FFFFFE"/>
<path transform="translate(152,593)" d="m0 0 1 4-4 13-14-1v-2l9-7z" fill="#200202"/>
<path transform="translate(1011,1099)" d="m0 0h20v1l-50 3h-19l-2-3z" fill="#FFFFFE"/>
<path transform="translate(763)" d="m0 0h5v24l-1 2-4-2z" fill="#FFFFFE"/>
<path transform="translate(548,1211)" d="m0 0 17 1 4 2-15 1h-4v3l17 5v1l-20-1-2-9z" fill="#FFFFFE"/>
<path transform="translate(514,1263)" d="m0 0h2l1 20-6-1-3-2 2-7v-7l-3-1v-1z" fill="#FFFFFE"/>
<path transform="translate(735,1114)" d="m0 0 28 4 12 1-3 2h-24l-10-1-2-1z" fill="#FFFFFE"/>
<path transform="translate(366,580)" d="m0 0 4 5 5 5 1 8-5 7-2-2-3-17z" fill="#FFFFFE"/>
<path transform="translate(828,998)" d="m0 0h21l1 4-13 1h-16l1-3z" fill="#200202"/>
<path transform="translate(946,797)" d="m0 0 5 2 1 1-1 7-4 3-4-1-3-3 1-6z" fill="#FFFFFE"/>
<path transform="translate(1089,1400)" d="m0 0 4 2 2 6v8l-2 7-5 5v-2h-2l4-10v-7z" fill="#FFFFFE"/>
<path transform="translate(780,1341)" d="m0 0 4 1 1 5-4 8-3 1-3-2-1-5 3-6z" fill="#FFFFFE"/>
<path transform="translate(889,915)" d="m0 0h12l20 6v2l-5 1-25-6z" fill="#FFFFFE"/>
<path transform="translate(1374,1173)" d="m0 0h1l3 28v16l-1 18h-1l-2-42z" fill="#FFFFFE"/>
<path transform="translate(784,886)" d="m0 0 4 2 10 14-1 6-4-2-10-17z" fill="#FFFFFE"/>
<path transform="translate(989,260)" d="m0 0h2l1 6v12l-7-6-3-6z" fill="#FFFFFE"/>
<path transform="translate(590,69)" d="m0 0 6 1-1 2-16 6-12 6-3-1 9-6 14-7z" fill="#FFFFFE"/>
<path transform="translate(949,1237)" d="m0 0 4 1 8 6 5 6v5l-6-4-5-6-8-6z" fill="#FFFFFE"/>
<path transform="translate(60,1158)" d="m0 0h3l1 10-2 25h-1l-1-17-2-4 1-12z" fill="#FFFFFE"/>
<path transform="translate(667,716)" d="m0 0 6 2 2 4 10 2-4 6-1 3-4-1-3-7-5-6-2-2z" fill="#200202"/>
<path transform="translate(126,1126)" d="m0 0h11l12 2v1l-5 1h-32v-1l12-2z" fill="#FFFFFE"/>
<path transform="translate(762,1052)" d="m0 0h41v3h-27l-14-2z" fill="#FFFFFE"/>
<path transform="translate(686,1109)" d="m0 0 10 1 11 6v1h-14l-7-6z" fill="#FFFFFE"/>
<path transform="translate(1217,1065)" d="m0 0 14 1-2 2-5 1v6h-7l-2-6z" fill="#FFFFFE"/>
<path transform="translate(727,56)" d="m0 0h8l13 5v1h-13l-7-1-5-4z" fill="#FFFFFE"/>
<path transform="translate(951,621)" d="m0 0 2 1v22l-1 11h-1l-1-7v-26z" fill="#FFFFFE"/>
<path transform="translate(564,830)" d="m0 0 1 4 1 7h-5l-5-5-1-4 1-1z" fill="#FFFFFE"/>
<path transform="translate(696,919)" d="m0 0 5 1 1 6-3 3-6-1-1-2-1-6z" fill="#FFFFFE"/>
<path transform="translate(535,402)" d="m0 0 3 1 4 13 2 5-1 3-5-6-4-10z" fill="#FFFFFE"/>
<path transform="translate(1367,939)" d="m0 0h7v4l-6-1-1 4-8 2v-4l3-1v-2z" fill="#200202"/>
<path transform="translate(332,1312)" d="m0 0h13l2 2-12 6h-2z" fill="#FFFFFE"/>
<path transform="translate(752,678)" d="m0 0 9 2 4 3v6l-5-2-10-6z" fill="#200202"/>
<path transform="translate(839,972)" d="m0 0h11l2 7-13-1z" fill="#FFFFFE"/>
<path transform="translate(778,871)" d="m0 0 4 1 1 3-2 4-6 2-5 2 1-4z" fill="#FFFFFE"/>
<path transform="translate(274,148)" d="m0 0 9 2 5 3-4 2-10-1-4-2 4-3z" fill="#FFFFFE"/>
<path transform="translate(348,963)" d="m0 0 5 2v3l-7 3-2 4-4-1-1-3 6-4z" fill="#FFFFFE"/>
<path transform="translate(1064,1420)" d="m0 0 2 3 1 4-13 6 2-5 4-5z" fill="#FFFFFE"/>
<path transform="translate(880,1244)" d="m0 0h5l-3 2-21 9h-2v-2l12-6z" fill="#FFFFFE"/>
<path transform="translate(1019,1115)" d="m0 0 28 1v1l-15 2h-10z" fill="#FFFFFE"/>
<path transform="translate(973,1315)" d="m0 0 5 1 10 5v1l-8 1-5-2z" fill="#200202"/>
<path transform="translate(993,931)" d="m0 0 3 1-1 4-7 3-7-1v-2l10-4z" fill="#FFFFFE"/>
<path transform="translate(652,846)" d="m0 0h3l2 5v8l-1 2h-2l-1-5-2-4v-5z" fill="#FFFFFE"/>
<path transform="translate(1023,1417)" d="m0 0 9 3-2 6-5-2-4-2 1-4z" fill="#FFFFFE"/>
<path transform="translate(967,938)" d="m0 0 16 2-4 3-3 2-4-1-4-2z" fill="#FFFFFE"/>
<path transform="translate(0,1068)" d="m0 0h21l6 1v1l-27 1z" fill="#FFFFFE"/>
<path transform="translate(786,954)" d="m0 0 10 1 2 1v2h-14l-6-1 3-2z" fill="#200202"/>
<path transform="translate(1159,903)" d="m0 0 18 4 4 2v1h-9l-14-5z" fill="#FFFFFE"/>
<path transform="translate(529,109)" d="m0 0h2l-2 4-2 2-11 2-4-1 8-4z" fill="#200202"/>
<path transform="translate(471,1206)" d="m0 0 13 2v1l-7 1h-17l3-2z" fill="#FFFFFE"/>
<path transform="translate(402,893)" d="m0 0h10l4 2h-2l1 6-6-2-7-5z" fill="#FFFFFE"/>
<path transform="translate(511,1098)" d="m0 0 9 1-2 5-1 2-5-1-3-4v-2z" fill="#FFFFFE"/>
<path transform="translate(639,866)" d="m0 0 6 1 3 4v8l-3-3-6-8z" fill="#FFFFFE"/>
<path transform="translate(395,470)" d="m0 0 2 2 5 12v3l-7-3z" fill="#FFFFFE"/>
<path transform="translate(1091,841)" d="m0 0 7 1 12 4v2l-7-1-3-2h-15l2-2z" fill="#FFFFFE"/>
<path transform="translate(905,1379)" d="m0 0 10 1-1 5-11-2z" fill="#FFFFFE"/>
<path transform="translate(130,1089)" d="m0 0 9 3-1 4-3-1 1-2h-12l-2-2z" fill="#FFFFFE"/>
<path transform="translate(206,208)" d="m0 0 7 1 6 4v2l-13-3z" fill="#FFFFFE"/>
<path transform="translate(380,386)" d="m0 0 2 1-7 7-6 7-2-1 4-7z" fill="#200202"/>
<path transform="translate(843,1440)" d="m0 0h2l5 8h-6l-3-2v-5z" fill="#FFFFFE"/>
<path transform="translate(1407,645)" d="m0 0 3 1 1 2v7l-4-1v-4l-3-1 1-3z" fill="#200202"/>
<path transform="translate(1407,601)" d="m0 0h3l1 3v7l-4-1-1-4-2-1 1-3z" fill="#200202"/>
<path transform="translate(245,928)" d="m0 0 13 2v2h-15v-3z" fill="#200202"/>
<path transform="translate(1407,513)" d="m0 0 3 1 1 9-4-1v-4l-3-1z" fill="#200202"/>
<path transform="translate(622,883)" d="m0 0 7 1 10 5v2l-10-3-7-4z" fill="#FFFFFE"/>
<path transform="translate(767,833)" d="m0 0 5 3-2 4-7-2 1-4z" fill="#FFFFFE"/>
<path transform="translate(1314,1021)" d="m0 0 7 1v2l-9 2-4-1 3-3z" fill="#FFFFFE"/>
<path transform="translate(828,974)" d="m0 0h4v4h-15l4-2z" fill="#FFFFFE"/>
<path transform="translate(1069,213)" d="m0 0h1v6l-2 2h-5l-1-4 6-2z" fill="#FFFFFE"/>
<path transform="translate(598,918)" d="m0 0h8l7 1v1l-5 1h-10z" fill="#200202"/>
<path transform="translate(887,1312)" d="m0 0 2 1-11 8h-2v2l-4 1 4-5z" fill="#FFFFFE"/>
<path transform="translate(618,929)" d="m0 0h10v2l-5 1h-8v-2z" fill="#200202"/>
<path transform="translate(919,1351)" d="m0 0h2l-1 7h-9l3-2h3z" fill="#FFFFFE"/>
<path transform="translate(1403,1119)" d="m0 0 2 1v5l-5-1v-3l-4-1z" fill="#FFFFFE"/>
<path transform="translate(699,685)" d="m0 0h7l-3 3-8 1 1-3z" fill="#200202"/>
<path transform="translate(964,950)" d="m0 0 2 1-6 5h-3l-1-4z" fill="#FFFFFE"/>
<path transform="translate(829,753)" d="m0 0 10 2 2 2-5 1-7-4z" fill="#200202"/>
<path transform="translate(358,1319)" d="m0 0 5 1 10 4-2 2-4-2-7-2v-2z" fill="#FFFFFE"/>
<path transform="translate(365,1110)" d="m0 0 6 2 5 3v1h-6z" fill="#FFFFFE"/>
<path transform="translate(138,1096)" d="m0 0h10l2 3h-8z" fill="#FFFFFE"/>
<path transform="translate(568,1017)" d="m0 0 2 1-2 6-6-2 5-4z" fill="#FFFFFE"/>
<path transform="translate(893,850)" d="m0 0 5 1 2 2v5h-2l-3-5-2-1z" fill="#FFFFFE"/>
<path transform="translate(1394,465)" d="m0 0 1 2 3-1 1 5-2 3v-4l-3 1-2-4z" fill="#FFFFFE"/>
<path transform="translate(839,98)" d="m0 0 7 1 6 2v1h-9z" fill="#FFFFFE"/>
</svg>
